<?xml version="1.0" encoding="UTF-8"?><svg xmlns="http://www.w3.org/2000/svg" xmlns:xlink="http://www.w3.org/1999/xlink" width="1080" height="1920" viewBox="0 0 1080 1920"><rect width="1080" height="1920" fill="#FFF8EC"/><text x="72" y="204" font-family="Noto Sans SC" font-size="36" font-weight="700" fill="#087F78" text-anchor="start">生活节奏看得见</text><path d="M72 232h128" stroke="#10BFAE" stroke-width="8"/><text x="900" y="204" font-family="Noto Sans SC" font-size="34" font-weight="700" fill="#087F78" text-anchor="end">04/07</text><rect x="72" y="300" width="828" height="260" rx="24" fill="#087F78"/><g><rect x="699.2" y="399.1" width="50.599999999999994" height="105.8" rx="11.5" fill="#FFF8EC" stroke="#FFF8EC" stroke-width="5.75"/><path d="M715.3 422.1h16M715.3 442.8h16" stroke="#10BFAE" stroke-width="6.8999999999999995" stroke-linecap="round"/><rect x="757.85" y="399.1" width="50.599999999999994" height="105.8" rx="11.5" fill="#FFF8EC" stroke="#FFF8EC" stroke-width="5.75"/><path d="M770.5 463.5h22M775.1 463.5v18M791.2 463.5v18" stroke="#10BFAE" stroke-width="6.8999999999999995" stroke-linecap="round"/><rect x="816.5" y="399.1" width="50.599999999999994" height="105.8" rx="11.5" fill="#FFF8EC" stroke="#FFF8EC" stroke-width="5.75"/><circle cx="841.8" cy="426.7" r="10.35" fill="#F5C79E"/><path d="M825.7 479.6L837.2 461.2L846.4 472.7L857.9 454.3" fill="none" stroke="#10BFAE" stroke-width="6.8999999999999995" stroke-linecap="round" stroke-linejoin="round"/></g><text x="72" y="670" font-family="Noto Sans SC" font-size="38" font-weight="700" fill="#087F78" text-anchor="start">观察 二</text><text x="72" y="770" font-family="Noto Sans SC" font-size="72" font-weight="700" fill="#24313D"><tspan x="72" dy="0">三件只选一件</tspan></text><text x="72" y="1010" font-family="Microsoft YaHei" font-size="42" font-weight="400" fill="#24313D"><tspan x="72" dy="0">离开屏幕、换姿势或看远处。</tspan></text><rect x="72" y="1320" width="828" height="96" rx="24" fill="#F5C79E"/><text x="108" y="1384" font-family="Noto Sans SC" font-size="38" font-weight="700" fill="#24313D" text-anchor="start">一次只留一个变量</text><text x="72" y="1488" font-family="Microsoft YaHei" font-size="36" font-weight="600" fill="#24313D" text-anchor="start">留作个人生活观察 · 安全优先</text><path d="M72 1520h828" stroke="#F5C79E" stroke-width="4"/><circle cx="836" cy="1664" r="104" fill="#F5C79E"/><path d="M808 1664c28-48 60-48 88 0" stroke="#087F78" stroke-width="20" fill="none" stroke-linecap="round"/></svg>