<svg viewBox="10 8.5 40 40" fill="none" xmlns="http://www.w3.org/2000/svg">
    <g>
        <path
            d="M29.4023 24.668L29.3906 46.8047C29.3906 48.5391 27.293 49.3945 26.0742 48.1758L18.0469 40.125C17.4727 39.5508 17.1914 38.8242 17.1914 38.0742C17.1914 37.3359 17.4727 36.5977 18.0352 36.0234C18.0469 36.0117 18.0469 36.0117 18.0469 36.0117L29.4023 24.668Z"
            fill="#85E7FE" />
        <path
            d="M19.9336 27.3984C21.4481 27.3984 22.6758 26.1707 22.6758 24.6562C22.6758 23.1418 21.4481 21.9141 19.9336 21.9141C18.4191 21.9141 17.1914 23.1418 17.1914 24.6562C17.1914 26.1707 18.4191 27.3984 19.9336 27.3984Z"
            fill="#5555FF" />
        <path
            d="M38.8828 34.1484C38.9062 34.1367 38.918 34.1133 38.9297 34.1016C38.9062 34.1133 38.8945 34.125 38.8828 34.1484C38.4258 34.6055 37.9336 35.0273 37.418 35.4141C37.0781 35.6719 36.7148 35.918 36.3516 36.1406C35.6133 36.5859 34.8281 36.9727 34.0078 37.2773C33.4336 37.4883 32.8359 37.6641 32.2148 37.793C31.3008 37.9922 30.3633 38.0977 29.3789 38.0977H17.1797C17.1797 37.3594 17.4609 36.6211 18.0234 36.0469C18.0352 36.0352 18.0352 36.0352 18.0352 36.0352L29.3906 24.6914L29.4023 24.6797L38.8828 34.1484Z"
            fill="#5555FF" />
        <path
            d="M38.8834 15.1758L29.4029 24.6562L19.3013 14.5547C18.0709 13.3242 18.9498 11.2383 20.6724 11.2383H29.4029C33.0943 11.25 36.4576 12.7617 38.8834 15.1758Z"
            fill="#85E7FE" />
        <path
            d="M42.8086 24.6562C42.8086 24.9141 42.7969 25.1719 42.7852 25.4297C42.7734 25.5586 42.7617 25.6875 42.7617 25.8164C42.75 25.9453 42.7383 26.0742 42.7266 26.2031C42.7148 26.332 42.6914 26.4492 42.6797 26.5781C42.668 26.707 42.6445 26.8242 42.6211 26.9531C42.5859 27.1992 42.5391 27.4453 42.4687 27.6914C42.4453 27.8086 42.4102 27.9375 42.3867 28.0547C42.3516 28.1719 42.3164 28.3008 42.2812 28.4062C42.2461 28.5234 42.2109 28.6406 42.1758 28.7578C42.1172 28.957 42.0469 29.1562 41.9648 29.3555C41.9414 29.4258 41.9062 29.4961 41.8828 29.5664C41.8359 29.6953 41.7773 29.8242 41.7188 29.9531C41.6602 30.082 41.6133 30.1992 41.5547 30.3281C41.4961 30.457 41.4375 30.5742 41.3789 30.6914C41.3438 30.75 41.3203 30.8203 41.2852 30.8672C41.25 30.9258 41.2148 30.9844 41.1914 31.043C41.0859 31.2305 40.9805 31.4062 40.875 31.582C40.8281 31.6641 40.7695 31.7461 40.7227 31.8281C40.6758 31.9102 40.6172 31.9805 40.5703 32.0625C40.4883 32.1797 40.4063 32.3086 40.3242 32.4258C40.3125 32.4375 40.3008 32.4492 40.2891 32.4609C40.2539 32.5195 40.207 32.5781 40.1719 32.625C40.125 32.6836 40.0898 32.7422 40.043 32.7891C39.9492 32.9062 39.8555 33.0352 39.75 33.1406C39.6797 33.2227 39.6094 33.3047 39.5391 33.3867C39.4805 33.457 39.4219 33.5156 39.375 33.5742C39.3633 33.5859 39.3516 33.5977 39.3398 33.6094C39.2813 33.6797 39.2227 33.7383 39.1641 33.8086C39.082 33.9141 38.9883 34.0078 38.8828 34.1016L29.4141 24.6328L38.8945 15.1406C39.0352 15.2812 39.1641 15.4102 39.293 15.5625C39.4219 15.7031 39.5508 15.8438 39.6797 15.9961C39.7617 16.0898 39.8438 16.1953 39.9258 16.2891C40.0078 16.3945 40.0898 16.4883 40.1602 16.5938C40.1602 16.6055 40.1719 16.6055 40.1719 16.6055C40.2422 16.7109 40.3125 16.8047 40.3828 16.8984C40.4531 17.0039 40.5352 17.1094 40.6055 17.2148C40.6406 17.2617 40.6758 17.3203 40.7109 17.3789C40.7461 17.4375 40.7812 17.4844 40.8164 17.543C41.0859 17.9766 41.332 18.4336 41.5547 18.8906C41.6016 18.9961 41.6602 19.1016 41.707 19.207C41.7539 19.3125 41.7891 19.418 41.8359 19.5234C41.8711 19.6055 41.9062 19.6875 41.9297 19.7695C42 19.957 42.0703 20.1445 42.1406 20.3438C42.2109 20.5547 42.2812 20.7656 42.3398 20.9766C42.375 21.082 42.3984 21.1875 42.4219 21.293C42.4453 21.3984 42.4805 21.5039 42.5039 21.6211C42.5273 21.7266 42.5508 21.8438 42.5742 21.9492C42.5977 22.0547 42.6211 22.1719 42.6328 22.2773C42.6445 22.3828 42.668 22.5 42.6914 22.6055C42.7148 22.7227 42.7266 22.8281 42.7383 22.9453C42.75 23.0625 42.7617 23.168 42.7734 23.2852C42.7852 23.4023 42.7969 23.5078 42.8086 23.625C42.832 23.8594 42.8438 24.082 42.8438 24.3164C42.8086 24.4336 42.8086 24.5391 42.8086 24.6562Z"
            fill="#52B4FE" />
    </g>
</svg>