<svg xmlns="http://www.w3.org/2000/svg" xmlns:xlink="http://www.w3.org/1999/xlink" width="32" height="32" viewBox="0 0 32 32" fill="none"><g opacity="1" transform="translate(1.9051640265388414e-9 0)  rotate(0 16 16)"><g opacity="1" transform="translate(4.5 5)  rotate(0 11.5 11)"><path id="路径 1" fill-rule="evenodd" style="fill:#37E2E2" transform="translate(16.075730327184974 10.989741340250855)  rotate(0 3.462134836407512 5.493985851650042)" opacity="1" d="M0.01,10.56C-0.04,10.76 0.12,10.99 0.35,10.99L6.58,10.99C6.8,10.99 6.96,10.79 6.92,10.56L3.78,0.25C3.71,-0.08 3.19,-0.08 3.12,0.25L0.01,10.56Z " /><path id="路径 2" fill-rule="evenodd" style="fill:#37E2E2" transform="translate(0 16.083076106250818)  rotate(0 2.276825836830947 2.9472706425632476)" opacity="1" d="M0.01,5.49C-0.04,5.69 0.12,5.89 0.35,5.89L4.21,5.89C4.43,5.89 4.59,5.69 4.55,5.49L2.6,0.27C2.54,-0.09 2.04,-0.09 1.95,0.27L0.01,5.49Z " /><path id="路径 3" fill-rule="evenodd" style="fill:#1678FF" transform="translate(1.8966224917327716 5.9018994003198815)  rotate(0 4.636256540107319 8.037858995528714)" opacity="1" d="M0.01,15.65C-0.04,15.85 0.12,16.08 0.35,16.08L8.93,16.08C9.15,16.08 9.31,15.87 9.26,15.65L4.97,0.25C4.88,-0.08 4.39,-0.08 4.3,0.25L0.01,15.65Z " /><path id="路径 4" fill-rule="evenodd" style="fill:#1678FF" transform="translate(7.337936008693084 0)  rotate(0 6.408644088165874 10.988808695688657)" opacity="1" d="M0.01,21.55C-0.04,21.75 0.12,21.98 0.35,21.98L12.47,21.98C12.7,21.98 12.85,21.78 12.81,21.55L6.74,0.27C6.65,-0.09 6.15,-0.09 6.08,0.27L0.01,21.55Z " /><path id="路径 5" fill-rule="evenodd" style="fill:#37E2E2" transform="translate(5.689759900082374 8.440087218130163)  rotate(0 4.049213826115883 6.7799563909349185)" opacity="1" d="M0.01,13.13C-0.04,13.34 0.12,13.56 0.35,13.56L7.75,13.56C7.98,13.56 8.14,13.36 8.09,13.13L4.37,0.27C4.3,-0.09 3.78,-0.09 3.71,0.27L0.01,13.13Z " /></g></g></svg>