<?xml version="1.0" encoding="UTF-8"?><svg xmlns="http://www.w3.org/2000/svg" xmlns:xlink="http://www.w3.org/1999/xlink" width="1080" height="1920" viewBox="0 0 1080 1920"><rect width="1080" height="1920" fill="#FFF8EC"/><text x="72" y="204" font-family="Noto Sans SC" font-size="36" font-weight="700" fill="#087F78" text-anchor="start">生活节奏看得见</text><path d="M72 232h128" stroke="#10BFAE" stroke-width="8"/><text x="900" y="204" font-family="Noto Sans SC" font-size="34" font-weight="700" fill="#087F78" text-anchor="end">03/07</text><rect x="72" y="300" width="828" height="260" rx="24" fill="#10BFAE"/><g><circle cx="196" cy="452" r="71.3" fill="#F5C79E"/><path d="M216.7 392.2a58 58 0 1 0 18 104a48 48 0 1 1-18-104" fill="#087F78"/></g><text x="320" y="670" font-family="Noto Sans SC" font-size="38" font-weight="700" fill="#087F78" text-anchor="start">观察 一</text><text x="320" y="770" font-family="Noto Sans SC" font-size="72" font-weight="700" fill="#24313D"><tspan x="320" dy="0">回想昨晚睡起</tspan></text><text x="320" y="1010" font-family="Microsoft YaHei" font-size="42" font-weight="400" fill="#24313D"><tspan x="320" dy="0">只记大致时点，和自己的重复</tspan><tspan x="320" dy="68">情况比。</tspan></text><rect x="72" y="1320" width="828" height="96" rx="24" fill="#087F78"/><text x="108" y="1384" font-family="Noto Sans SC" font-size="38" font-weight="700" fill="#FFF8EC" text-anchor="start">和自己的重复情况比</text><text x="72" y="1488" font-family="Microsoft YaHei" font-size="36" font-weight="600" fill="#24313D" text-anchor="start">留作个人生活观察 · 安全优先</text><path d="M72 1520h828" stroke="#F5C79E" stroke-width="4"/><circle cx="836" cy="1664" r="104" fill="#F5C79E"/><path d="M808 1664c28-48 60-48 88 0" stroke="#087F78" stroke-width="20" fill="none" stroke-linecap="round"/></svg>