<?xml version="1.0" encoding="UTF-8"?><svg xmlns="http://www.w3.org/2000/svg" xmlns:xlink="http://www.w3.org/1999/xlink" width="1080" height="1920" viewBox="0 0 1080 1920"><rect width="1080" height="1920" fill="#FFF8EC"/><text x="72" y="204" font-family="Noto Sans SC" font-size="36" font-weight="700" fill="#087F78" text-anchor="start">生活节奏看得见</text><path d="M72 232h128" stroke="#10BFAE" stroke-width="8"/><text x="900" y="204" font-family="Noto Sans SC" font-size="34" font-weight="700" fill="#087F78" text-anchor="end">02/07</text><g><rect x="72" y="320" width="828" height="760" rx="24" fill="#087F78"/><path d="M152 960C292 690,502 1040,820 440" fill="none" stroke="#FFF8EC" stroke-width="44" stroke-linecap="round"/><rect x="192" y="440" width="170" height="170" rx="24" fill="#FFF8EC"/><rect x="402" y="530" width="170" height="170" rx="24" fill="#10BFAE"/><rect x="612" y="430" width="170" height="170" rx="24" fill="#FFF8EC"/><circle cx="242" cy="920" r="42" fill="#10BFAE"/><circle cx="770" cy="470" r="68" fill="#F5C79E"/></g><rect x="104" y="920" width="764" height="390" rx="24" fill="#FFF8EC" stroke="#087F78" stroke-width="4"/><text x="144" y="1010" font-family="Noto Sans SC" font-size="68" font-weight="700" fill="#24313D"><tspan x="144" dy="0">同一小段两种感受</tspan></text><text x="144" y="1190" font-family="Microsoft YaHei" font-size="42" font-weight="400" fill="#24313D"><tspan x="144" dy="0">办公位做同类小任务，有时容易起</tspan><tspan x="144" dy="66">步，有时返工变多。</tspan></text><text x="72" y="1488" font-family="Microsoft YaHei" font-size="36" font-weight="600" fill="#24313D" text-anchor="start">留作个人生活观察 · 安全优先</text><path d="M72 1520h828" stroke="#F5C79E" stroke-width="4"/><circle cx="836" cy="1664" r="104" fill="#F5C79E"/><path d="M808 1664c28-48 60-48 88 0" stroke="#087F78" stroke-width="20" fill="none" stroke-linecap="round"/></svg>