<?xml version="1.0" encoding="UTF-8"?><svg xmlns="http://www.w3.org/2000/svg" xmlns:xlink="http://www.w3.org/1999/xlink" width="1080" height="1920" viewBox="0 0 1080 1920"><rect width="1080" height="1920" fill="#FFF8EC"/><text x="72" y="204" font-family="Noto Sans SC" font-size="36" font-weight="700" fill="#087F78" text-anchor="start">生活节奏看得见</text><path d="M72 232h128" stroke="#10BFAE" stroke-width="8"/><text x="900" y="204" font-family="Noto Sans SC" font-size="34" font-weight="700" fill="#087F78" text-anchor="end">04/07</text><rect x="72" y="300" width="828" height="260" rx="24" fill="#087F78"/><g><circle cx="782" cy="452" r="39.099999999999994" fill="#10BFAE"/><path d="M782 378.4v18M782 504.9v18M708.4 452h18M834.9 452h18M731.4 401.4l14 14M816.5 486.5l14 14" stroke="#FFF8EC" stroke-width="9.2"/></g><text x="72" y="670" font-family="Noto Sans SC" font-size="38" font-weight="700" fill="#087F78" text-anchor="start">观察 二</text><text x="72" y="770" font-family="Noto Sans SC" font-size="72" font-weight="700" fill="#24313D"><tspan x="72" dy="0">记开始与类型</tspan></text><text x="72" y="1010" font-family="Microsoft YaHei" font-size="42" font-weight="400" fill="#24313D"><tspan x="72" dy="0">时点要和任务类型一起留下。</tspan></text><rect x="72" y="1320" width="828" height="96" rx="24" fill="#F5C79E"/><text x="108" y="1384" font-family="Noto Sans SC" font-size="38" font-weight="700" fill="#24313D" text-anchor="start">一次只留一个变量</text><text x="72" y="1488" font-family="Microsoft YaHei" font-size="36" font-weight="600" fill="#24313D" text-anchor="start">留作个人生活观察 · 安全优先</text><path d="M72 1520h828" stroke="#F5C79E" stroke-width="4"/><circle cx="836" cy="1664" r="104" fill="#F5C79E"/><path d="M808 1664c28-48 60-48 88 0" stroke="#087F78" stroke-width="20" fill="none" stroke-linecap="round"/></svg>